
<svg xmlns="http://www.w3.org/2000/svg" version="1.1" xmlns:xlink="http://www.w3.org/1999/xlink" preserveAspectRatio="none" x="0px" y="0px" width="216px" height="56px" viewBox="0 0 216 56">
<defs>
<g id="Layer0_0_FILL">
<path fill="#FF9800" stroke="none" d="
M 191.5 27.25
Q 189.4 27.25 187.95 28.75 186.45 30.2 186.45 32.3 186.45 34.4 187.95 35.9 189.4 37.35 191.5 37.35 193.6 37.35 195.1 35.9 196.55 34.4 196.55 32.3 196.55 30.2 195.1 28.75 193.6 27.25 191.5 27.25 Z"/>
</g>

<g id="Layer0_1_FILL">
<path fill="#FF9800" stroke="none" d="
M 33.75 2.7
Q 31.65 2.7 30.2 4.2 28.7 5.7 28.7 7.75 28.7 9.85 30.2 11.35 31.65 12.85 33.75 12.85 35.85 12.85 37.35 11.35 38.8 9.85 38.8 7.75 38.8 5.7 37.35 4.2 35.85 2.7 33.75 2.7 Z"/>
</g>

<g id="Layer0_2_FILL">
<path fill="#4389ED" stroke="none" d="
M 88.6 23.4
Q 90.7 17.55 85.45 12.85 82.5 9.7 79.3 6.7 77.25 4.85 74.7 2.65
L 72.5 0.85
Q 71.7 0.15 70.6 0.1 69.5 0.05 68.65 0.7 67.55 1.4 67 2.55 66.4 3.7 66.5 5
L 66.5 29.1
Q 66.55 30.25 67.35 31 68.2 31.8 69.35 31.8
L 69.6 31.75
Q 70.7 31.85 71.55 31.15 72.4 30.45 72.5 29.35
L 72.5 10.05 72.7 9.45
Q 73.05 9 73.85 9.65 76.8 12.05 82.25 17.5
L 83.4 19.4
Q 84.2 21.7 82.25 23.65
L 73.3 32.15 73.3 32.2
Q 71.412890625 34.15 69.5 34.15 68.25 34.15 66.75 32.95
L 63.6 29.75
Q 63.45078125 29.515234375 63.25 29.3
L 54.3 19.65
Q 53.35 18.6 51.85 17.55 48.8 15.4 45.9 15.4 43 15.4 40.05 17.45
L 37.65 19.5 37.5 19.6
Q 37.1216796875 19.892578125 36.8 20.3
L 26.25 31.75
Q 25.75 32.35 25 32.95 23.5 34.15 22.25 34.15 20.95 34.15 19.5 33.05
L 18.25 31.9 4.4 16.7
Q 2.4 14.9 0.75 15.6 -0.05 16 -0.5 16.7 -1.05 17.6 -0.95 18.65 -0.8 19.65 -0.1 20.4
L 13.85 35.35 16.35 37.5
Q 19.4 39.6 22.25 39.6 25.2 39.6 28.15 37.55 29.65 36.55 30.55 35.5
L 30.55 35.45
Q 31.0099609375 35.2033203125 31.35 34.75
L 41.2 24.05
Q 41.3521484375 23.87890625 41.45 23.7
L 43.15 22.05
Q 44.7 20.85 45.9 20.85 47.2 20.85 48.7 22 49.45 22.55 49.9 23.1
L 51.45 24.8
Q 51.6515625 25.0705078125 51.9 25.35
L 61.25 35.5 63.6 37.6
Q 66.55 39.65 69.5 39.65 72.35 39.65 75.4 37.5 76.95 36.45 77.9 35.35
L 85.45 28.3
Q 87.55 26.3 88.6 23.4
M 164 18.25
Q 164 17.05 163.2 16.2 162.832421875 15.832421875 162.4 15.6 162.06640625 15.4416015625 161.7 15.35 161.80390625 15.401953125 161.9 15.45 161.540625 15.35 161.15 15.35 160.0818359375 15.30546875 159.3 15.95 159.042578125 16.1345703125 158.75 16.35 158.903515625 16.187890625 159.05 16.05 158.7 16.3 158.35 16.6
L 144.5 31.8 143.3 32.9
Q 141.8 34.05 140.5 34.05 139.0419921875 34.05 137.5 32.7
L 126 20.3
Q 125.6595703125 19.8744140625 125.25 19.6
L 125.15 19.5
Q 124.396484375 18.6626953125 123.2 17.8
L 122.75 17.3
Q 119.8 15.25 116.9 15.25 114 15.25 110.95 17.4 109.45 18.45 108.5 19.55
L 101.05 27.5 100.4 28.05
Q 100.1009765625 28.2634765625 99.85 28.25 99.6423828125 28.2611328125 99.5 28
L 99.3 27.35 99.3 26.55 99.25 26.55 99.25 2.9
Q 99.25 1.75 98.45 0.9 97.8044921875 0.2544921875 96.95 0.05
L 96.4 0
Q 96.3625 -0.0015625 96.3 0 96.2890625 -0.00078125 96.25 0
L 95.7 0.05
Q 94.9349609375 0.185546875 94.3 0.75 93.45 1.55 93.4 2.75
L 93.4 36.65
Q 93.4 37.85 94.2 38.7 94.625390625 39.125390625 95.15 39.35 95.4 39.4578125 95.65 39.5 95.5693359375 39.4916015625 95.45 39.45 95.8361328125 39.55 96.25 39.55 97.3 39.6 98.1 38.9 98.35625 38.7576171875 98.6 38.55 98.50234375 38.706640625 98.35 38.85 98.6986328125 38.6169921875 99.05 38.3
L 112.9 23.1 114.1 22
Q 115.6 20.85 116.9 20.85 118.3638671875 20.85 119.85 22.2
L 131.4 34.6
Q 131.75 35.05 132.15 35.3
L 132.25 35.4
Q 132.3697265625 35.5330078125 132.5 35.65 133.1880859375 36.375390625 134.15 37.1
L 134.65 37.6
Q 137.6 39.65 140.5 39.65 143.4 39.65 146.45 37.5 147.95 36.45 148.9 35.35
L 156.3 27.4 157 26.85
Q 157.2994140625 26.6361328125 157.5 26.6 157.7578125 26.6390625 157.9 26.9
L 158.1 27.55 158.1 28.35 158.15 28.35 158.15 52
Q 158.15 53.15 158.95 54 159.5955078125 54.6455078125 160.45 54.8
L 161 54.9
Q 161.0375 54.9015625 161.05 54.9
L 161.6 54.85
Q 162.444921875 54.732421875 163.1 54.15 163.95 53.35 164 52.15
L 164 18.25
M 214.9 37.25
Q 215.2 35.9 214 34.55
L 200 19.5
Q 199.1 18.5 197.6 17.45 194.65 15.4 191.75 15.4 188.9 15.4 185.85 17.55
L 183.35 19.65 169.4 34.6
Q 168.65 35.35 168.55 36.4 168.4 37.45 169 38.3
L 170.25 39.4
Q 171.9 40.15 173.9 38.3
L 187.75 23.1 189 22
Q 190.45 20.85 191.75 20.85 193 20.85 194.5 22.05 195.25 22.65 195.75 23.25
L 209.6 38.3
Q 210.4 39.3 211.65 39.45 212.9 39.65 213.85 38.85
L 214.4 38.3
Q 214.8 37.9 214.9 37.25 Z"/>
</g>

<g id="Vindhya_logo_svg_0_Logo_INFOT_0_Layer0_0_FILL">
<path fill="#6F6F6E" stroke="none" d="
M -18.2 2.8
L -18.2 12 -16.95 12 -16.95 2.8 -18.2 2.8
M 3.05 2.8
L 1.8 2.8 1.8 9.4 -5 2.4 -5 12 -3.75 12 -3.75 5.45 3.05 12.45 3.05 2.8
M 16.05 4.05
L 19.9 4.05 19.9 2.8 14.8 2.8 14.8 12 16.05 12 16.05 7.6 19.9 7.6 19.9 6.35 16.05 6.35 16.05 4.05
M 39.7 3.95
Q 38.2 2.5 36.15 2.5 34.05 2.5 32.55 3.95 31.05 5.35 31.05 7.35 31.05 9.4 32.5 10.85 34 12.3 36.1 12.3 38.25 12.3 39.7 10.85 41.2 9.45 41.2 7.35 41.2 5.35 39.7 3.95
M 36.05 3.8
Q 37.65 3.8 38.75 4.85 39.85 5.9 39.85 7.4 39.85 8.85 38.75 9.95 37.7 11 36.2 11 34.6 11 33.45 9.95 32.35 8.9 32.35 7.4 32.35 5.9 33.45 4.85 34.5 3.8 36.05 3.8
M 51.95 2.8
L 51.95 4.05 54.15 4.05 54.15 12 55.4 12 55.4 4.05 57.6 4.05 57.6 2.8 51.95 2.8 Z"/>
</g>

<g id="Vindhya_logo_svg_0_Logo_ECH_0_Layer0_0_FILL">
<path fill="#6F6F6E" stroke="none" d="
M -3.5 4.05
L -3.5 2.8 -8.6 2.8 -8.6 12 -3.5 12 -3.5 10.75 -7.35 10.75 -7.35 7.6 -3.5 7.6 -3.5 6.35 -7.35 6.35 -7.35 4.05 -3.5 4.05
M 15.45 3.1
Q 14 2.5 12.65 2.5 10.55 2.5 9.05 3.95 7.55 5.35 7.55 7.4 7.55 9.4 9.1 10.85 10.6 12.3 12.75 12.3 14.2 12.3 15.45 11.65
L 15.45 10.2
Q 14.1 11 12.85 11 11.15 11 10.05 9.95 8.9 8.9 8.9 7.4 8.9 5.9 10 4.85 11.1 3.8 12.7 3.8 13.95 3.8 15.45 4.55
L 15.45 3.1
M 32.65 2.8
L 32.65 6.35 28.25 6.35 28.25 2.8 27 2.8 27 12 28.25 12 28.25 7.6 32.65 7.6 32.65 12 33.9 12 33.9 2.8 32.65 2.8 Z"/>
</g>

<g id="Layer0_5_FILL">
<path fill="#FF9800" stroke="none" d="
M 34.05 15.35
Q 32.85 15.3 32 16.15 31.15 16.95 31.1 18.15
L 31.1 36.75
Q 31.1 37.9 31.9 38.7 32.75 39.55 33.85 39.6 35.1 39.7 36 38.85 36.85 38.05 36.9 36.85
L 36.9 18.25
Q 36.9 17.05 36.1 16.2 35.25 15.35 34.05 15.35 Z"/>
</g>
</defs>

<g transform="matrix( 1, 0, 0, 1, 0.95,0.2) ">
<use xlink:href="#Layer0_0_FILL"/>
</g>

<g transform="matrix( 1, 0, 0, 1, 0.95,0.2) ">
<use xlink:href="#Layer0_1_FILL"/>
</g>

<g transform="matrix( 1, 0, 0, 1, 0.95,0.2) ">
<use xlink:href="#Layer0_2_FILL"/>
</g>

<g transform="matrix( 1, 0, 0, 1, 96.1,40.85) ">
<g transform="matrix( 1, 0, 0, 1, 0,0) ">
<use xlink:href="#Vindhya_logo_svg_0_Logo_INFOT_0_Layer0_0_FILL"/>
</g>
</g>

<g transform="matrix( 1, 0, 0, 1, 180.9,40.85) ">
<g transform="matrix( 1, 0, 0, 1, 0,0) ">
<use xlink:href="#Vindhya_logo_svg_0_Logo_ECH_0_Layer0_0_FILL"/>
</g>
</g>

<g transform="matrix( 1, 0, 0, 1, 0.95,0.2) ">
<use xlink:href="#Layer0_5_FILL"/>
</g>
</svg>
